<mxfile host="app.diagrams.net" agent="Mozilla/5.0 (Windows NT 10.0; Win64; x64) AppleWebKit/537.36 (KHTML, like Gecko) Chrome/126.0.0.0 Safari/537.36" version="24.7.4">
  <diagram name="Página-1" id="OFlriYG0g8WZ8DomjFny">
    <mxGraphModel dx="1674" dy="780" grid="1" gridSize="10" guides="1" tooltips="1" connect="1" arrows="1" fold="1" page="1" pageScale="1" pageWidth="3300" pageHeight="4681" math="0" shadow="0">
      <root>
        <mxCell id="0" />
        <mxCell id="1" parent="0" />
        <mxCell id="w-CyJ4oe0L6m2nEmuW-k-74" style="edgeStyle=orthogonalEdgeStyle;rounded=0;orthogonalLoop=1;jettySize=auto;html=1;entryX=0;entryY=0.25;entryDx=0;entryDy=0;" parent="1" source="OWS8ay4OK2PdKrpL_n5y-1" target="w-CyJ4oe0L6m2nEmuW-k-1" edge="1">
          <mxGeometry relative="1" as="geometry" />
        </mxCell>
        <mxCell id="OWS8ay4OK2PdKrpL_n5y-1" value="Pessoa" style="swimlane;fontStyle=0;childLayout=stackLayout;horizontal=1;startSize=26;fillColor=none;horizontalStack=0;resizeParent=1;resizeParentMax=0;resizeLast=0;collapsible=1;marginBottom=0;whiteSpace=wrap;html=1;" parent="1" vertex="1">
          <mxGeometry x="390" y="40" width="221" height="240" as="geometry" />
        </mxCell>
        <mxCell id="OWS8ay4OK2PdKrpL_n5y-2" value="+ Nome: string" style="text;strokeColor=none;fillColor=none;align=left;verticalAlign=top;spacingLeft=4;spacingRight=4;overflow=hidden;rotatable=0;points=[[0,0.5],[1,0.5]];portConstraint=eastwest;whiteSpace=wrap;html=1;" parent="OWS8ay4OK2PdKrpL_n5y-1" vertex="1">
          <mxGeometry y="26" width="221" height="26" as="geometry" />
        </mxCell>
        <mxCell id="OWS8ay4OK2PdKrpL_n5y-3" value="+ CPF: string" style="text;strokeColor=none;fillColor=none;align=left;verticalAlign=top;spacingLeft=4;spacingRight=4;overflow=hidden;rotatable=0;points=[[0,0.5],[1,0.5]];portConstraint=eastwest;whiteSpace=wrap;html=1;" parent="OWS8ay4OK2PdKrpL_n5y-1" vertex="1">
          <mxGeometry y="52" width="221" height="26" as="geometry" />
        </mxCell>
        <mxCell id="OWS8ay4OK2PdKrpL_n5y-4" value="+ DataNascimento: dateOnly" style="text;strokeColor=none;fillColor=none;align=left;verticalAlign=top;spacingLeft=4;spacingRight=4;overflow=hidden;rotatable=0;points=[[0,0.5],[1,0.5]];portConstraint=eastwest;whiteSpace=wrap;html=1;" parent="OWS8ay4OK2PdKrpL_n5y-1" vertex="1">
          <mxGeometry y="78" width="221" height="26" as="geometry" />
        </mxCell>
        <mxCell id="OWS8ay4OK2PdKrpL_n5y-5" value="+ Sexo: char" style="text;strokeColor=none;fillColor=none;align=left;verticalAlign=top;spacingLeft=4;spacingRight=4;overflow=hidden;rotatable=0;points=[[0,0.5],[1,0.5]];portConstraint=eastwest;whiteSpace=wrap;html=1;" parent="OWS8ay4OK2PdKrpL_n5y-1" vertex="1">
          <mxGeometry y="104" width="221" height="26" as="geometry" />
        </mxCell>
        <mxCell id="OWS8ay4OK2PdKrpL_n5y-6" value="+ Endereco: enderecoCompleto" style="text;strokeColor=none;fillColor=none;align=left;verticalAlign=top;spacingLeft=4;spacingRight=4;overflow=hidden;rotatable=0;points=[[0,0.5],[1,0.5]];portConstraint=eastwest;whiteSpace=wrap;html=1;" parent="OWS8ay4OK2PdKrpL_n5y-1" vertex="1">
          <mxGeometry y="130" width="221" height="26" as="geometry" />
        </mxCell>
        <mxCell id="OWS8ay4OK2PdKrpL_n5y-7" value="+ Salario: double" style="text;strokeColor=none;fillColor=none;align=left;verticalAlign=top;spacingLeft=4;spacingRight=4;overflow=hidden;rotatable=0;points=[[0,0.5],[1,0.5]];portConstraint=eastwest;whiteSpace=wrap;html=1;" parent="OWS8ay4OK2PdKrpL_n5y-1" vertex="1">
          <mxGeometry y="156" width="221" height="26" as="geometry" />
        </mxCell>
        <mxCell id="OWS8ay4OK2PdKrpL_n5y-8" value="+ Telefone: string" style="text;strokeColor=none;fillColor=none;align=left;verticalAlign=top;spacingLeft=4;spacingRight=4;overflow=hidden;rotatable=0;points=[[0,0.5],[1,0.5]];portConstraint=eastwest;whiteSpace=wrap;html=1;" parent="OWS8ay4OK2PdKrpL_n5y-1" vertex="1">
          <mxGeometry y="182" width="221" height="26" as="geometry" />
        </mxCell>
        <mxCell id="OWS8ay4OK2PdKrpL_n5y-9" value="+ Email: string" style="text;strokeColor=none;fillColor=none;align=left;verticalAlign=top;spacingLeft=4;spacingRight=4;overflow=hidden;rotatable=0;points=[[0,0.5],[1,0.5]];portConstraint=eastwest;whiteSpace=wrap;html=1;" parent="OWS8ay4OK2PdKrpL_n5y-1" vertex="1">
          <mxGeometry y="208" width="221" height="32" as="geometry" />
        </mxCell>
        <mxCell id="OWS8ay4OK2PdKrpL_n5y-11" value="Funcionario" style="swimlane;fontStyle=0;childLayout=stackLayout;horizontal=1;startSize=26;fillColor=none;horizontalStack=0;resizeParent=1;resizeParentMax=0;resizeLast=0;collapsible=1;marginBottom=0;whiteSpace=wrap;html=1;" parent="1" vertex="1">
          <mxGeometry x="670" y="40" width="221" height="104" as="geometry" />
        </mxCell>
        <mxCell id="OWS8ay4OK2PdKrpL_n5y-12" value="+ Gerente: bool" style="text;strokeColor=none;fillColor=none;align=left;verticalAlign=top;spacingLeft=4;spacingRight=4;overflow=hidden;rotatable=0;points=[[0,0.5],[1,0.5]];portConstraint=eastwest;whiteSpace=wrap;html=1;" parent="OWS8ay4OK2PdKrpL_n5y-11" vertex="1">
          <mxGeometry y="26" width="221" height="26" as="geometry" />
        </mxCell>
        <mxCell id="OWS8ay4OK2PdKrpL_n5y-13" value="+ Registro: guid" style="text;strokeColor=none;fillColor=none;align=left;verticalAlign=top;spacingLeft=4;spacingRight=4;overflow=hidden;rotatable=0;points=[[0,0.5],[1,0.5]];portConstraint=eastwest;whiteSpace=wrap;html=1;" parent="OWS8ay4OK2PdKrpL_n5y-11" vertex="1">
          <mxGeometry y="52" width="221" height="26" as="geometry" />
        </mxCell>
        <mxCell id="OWS8ay4OK2PdKrpL_n5y-14" value="+ Ativo: bool" style="text;strokeColor=none;fillColor=none;align=left;verticalAlign=top;spacingLeft=4;spacingRight=4;overflow=hidden;rotatable=0;points=[[0,0.5],[1,0.5]];portConstraint=eastwest;whiteSpace=wrap;html=1;" parent="OWS8ay4OK2PdKrpL_n5y-11" vertex="1">
          <mxGeometry y="78" width="221" height="26" as="geometry" />
        </mxCell>
        <mxCell id="w-CyJ4oe0L6m2nEmuW-k-1" value="Cliente" style="swimlane;fontStyle=0;childLayout=stackLayout;horizontal=1;startSize=26;fillColor=none;horizontalStack=0;resizeParent=1;resizeParentMax=0;resizeLast=0;collapsible=1;marginBottom=0;whiteSpace=wrap;html=1;" parent="1" vertex="1">
          <mxGeometry x="670" y="200" width="221" height="78" as="geometry" />
        </mxCell>
        <mxCell id="w-CyJ4oe0L6m2nEmuW-k-3" value="+ Restrição: bool" style="text;strokeColor=none;fillColor=none;align=left;verticalAlign=top;spacingLeft=4;spacingRight=4;overflow=hidden;rotatable=0;points=[[0,0.5],[1,0.5]];portConstraint=eastwest;whiteSpace=wrap;html=1;" parent="w-CyJ4oe0L6m2nEmuW-k-1" vertex="1">
          <mxGeometry y="26" width="221" height="26" as="geometry" />
        </mxCell>
        <mxCell id="w-CyJ4oe0L6m2nEmuW-k-4" value="+ Ativo: bool" style="text;strokeColor=none;fillColor=none;align=left;verticalAlign=top;spacingLeft=4;spacingRight=4;overflow=hidden;rotatable=0;points=[[0,0.5],[1,0.5]];portConstraint=eastwest;whiteSpace=wrap;html=1;" parent="w-CyJ4oe0L6m2nEmuW-k-1" vertex="1">
          <mxGeometry y="52" width="221" height="26" as="geometry" />
        </mxCell>
        <mxCell id="w-CyJ4oe0L6m2nEmuW-k-77" style="edgeStyle=orthogonalEdgeStyle;rounded=0;orthogonalLoop=1;jettySize=auto;html=1;entryX=0.5;entryY=0;entryDx=0;entryDy=0;" parent="1" source="w-CyJ4oe0L6m2nEmuW-k-5" target="w-CyJ4oe0L6m2nEmuW-k-14" edge="1">
          <mxGeometry relative="1" as="geometry" />
        </mxCell>
        <mxCell id="w-CyJ4oe0L6m2nEmuW-k-5" value="Endereço" style="swimlane;fontStyle=0;childLayout=stackLayout;horizontal=1;startSize=26;fillColor=none;horizontalStack=0;resizeParent=1;resizeParentMax=0;resizeLast=0;collapsible=1;marginBottom=0;whiteSpace=wrap;html=1;" parent="1" vertex="1">
          <mxGeometry x="89" y="44" width="221" height="156" as="geometry" />
        </mxCell>
        <mxCell id="w-CyJ4oe0L6m2nEmuW-k-9" value="+ CEP: string" style="text;strokeColor=none;fillColor=none;align=left;verticalAlign=top;spacingLeft=4;spacingRight=4;overflow=hidden;rotatable=0;points=[[0,0.5],[1,0.5]];portConstraint=eastwest;whiteSpace=wrap;html=1;" parent="w-CyJ4oe0L6m2nEmuW-k-5" vertex="1">
          <mxGeometry y="26" width="221" height="26" as="geometry" />
        </mxCell>
        <mxCell id="w-CyJ4oe0L6m2nEmuW-k-6" value="+ Logradouro: string" style="text;strokeColor=none;fillColor=none;align=left;verticalAlign=top;spacingLeft=4;spacingRight=4;overflow=hidden;rotatable=0;points=[[0,0.5],[1,0.5]];portConstraint=eastwest;whiteSpace=wrap;html=1;" parent="w-CyJ4oe0L6m2nEmuW-k-5" vertex="1">
          <mxGeometry y="52" width="221" height="26" as="geometry" />
        </mxCell>
        <mxCell id="w-CyJ4oe0L6m2nEmuW-k-7" value="+ Cidade: string" style="text;strokeColor=none;fillColor=none;align=left;verticalAlign=top;spacingLeft=4;spacingRight=4;overflow=hidden;rotatable=0;points=[[0,0.5],[1,0.5]];portConstraint=eastwest;whiteSpace=wrap;html=1;" parent="w-CyJ4oe0L6m2nEmuW-k-5" vertex="1">
          <mxGeometry y="78" width="221" height="26" as="geometry" />
        </mxCell>
        <mxCell id="w-CyJ4oe0L6m2nEmuW-k-8" value="+ UF: string" style="text;strokeColor=none;fillColor=none;align=left;verticalAlign=top;spacingLeft=4;spacingRight=4;overflow=hidden;rotatable=0;points=[[0,0.5],[1,0.5]];portConstraint=eastwest;whiteSpace=wrap;html=1;" parent="w-CyJ4oe0L6m2nEmuW-k-5" vertex="1">
          <mxGeometry y="104" width="221" height="26" as="geometry" />
        </mxCell>
        <mxCell id="w-CyJ4oe0L6m2nEmuW-k-19" value="+ Bairo: string" style="text;strokeColor=none;fillColor=none;align=left;verticalAlign=top;spacingLeft=4;spacingRight=4;overflow=hidden;rotatable=0;points=[[0,0.5],[1,0.5]];portConstraint=eastwest;whiteSpace=wrap;html=1;" parent="w-CyJ4oe0L6m2nEmuW-k-5" vertex="1">
          <mxGeometry y="130" width="221" height="26" as="geometry" />
        </mxCell>
        <mxCell id="w-CyJ4oe0L6m2nEmuW-k-14" value="EndereçoCompleto" style="swimlane;fontStyle=0;childLayout=stackLayout;horizontal=1;startSize=26;fillColor=none;horizontalStack=0;resizeParent=1;resizeParentMax=0;resizeLast=0;collapsible=1;marginBottom=0;whiteSpace=wrap;html=1;" parent="1" vertex="1">
          <mxGeometry x="89" y="260" width="221" height="130" as="geometry" />
        </mxCell>
        <mxCell id="w-CyJ4oe0L6m2nEmuW-k-17" value="+ Id: guid" style="text;strokeColor=none;fillColor=none;align=left;verticalAlign=top;spacingLeft=4;spacingRight=4;overflow=hidden;rotatable=0;points=[[0,0.5],[1,0.5]];portConstraint=eastwest;whiteSpace=wrap;html=1;" parent="w-CyJ4oe0L6m2nEmuW-k-14" vertex="1">
          <mxGeometry y="26" width="221" height="26" as="geometry" />
        </mxCell>
        <mxCell id="w-CyJ4oe0L6m2nEmuW-k-15" value="+ Numero: string" style="text;strokeColor=none;fillColor=none;align=left;verticalAlign=top;spacingLeft=4;spacingRight=4;overflow=hidden;rotatable=0;points=[[0,0.5],[1,0.5]];portConstraint=eastwest;whiteSpace=wrap;html=1;" parent="w-CyJ4oe0L6m2nEmuW-k-14" vertex="1">
          <mxGeometry y="52" width="221" height="26" as="geometry" />
        </mxCell>
        <mxCell id="w-CyJ4oe0L6m2nEmuW-k-16" value="+ Complemento: string" style="text;strokeColor=none;fillColor=none;align=left;verticalAlign=top;spacingLeft=4;spacingRight=4;overflow=hidden;rotatable=0;points=[[0,0.5],[1,0.5]];portConstraint=eastwest;whiteSpace=wrap;html=1;" parent="w-CyJ4oe0L6m2nEmuW-k-14" vertex="1">
          <mxGeometry y="78" width="221" height="26" as="geometry" />
        </mxCell>
        <mxCell id="w-CyJ4oe0L6m2nEmuW-k-18" value="+ Bairo: string" style="text;strokeColor=none;fillColor=none;align=left;verticalAlign=top;spacingLeft=4;spacingRight=4;overflow=hidden;rotatable=0;points=[[0,0.5],[1,0.5]];portConstraint=eastwest;whiteSpace=wrap;html=1;" parent="w-CyJ4oe0L6m2nEmuW-k-14" vertex="1">
          <mxGeometry y="104" width="221" height="26" as="geometry" />
        </mxCell>
        <mxCell id="w-CyJ4oe0L6m2nEmuW-k-21" value="Conta" style="swimlane;fontStyle=0;childLayout=stackLayout;horizontal=1;startSize=26;fillColor=none;horizontalStack=0;resizeParent=1;resizeParentMax=0;resizeLast=0;collapsible=1;marginBottom=0;whiteSpace=wrap;html=1;" parent="1" vertex="1">
          <mxGeometry x="670" y="330" width="221" height="330" as="geometry" />
        </mxCell>
        <mxCell id="w-CyJ4oe0L6m2nEmuW-k-22" value="+ Agencia: agencia" style="text;strokeColor=none;fillColor=none;align=left;verticalAlign=top;spacingLeft=4;spacingRight=4;overflow=hidden;rotatable=0;points=[[0,0.5],[1,0.5]];portConstraint=eastwest;whiteSpace=wrap;html=1;" parent="w-CyJ4oe0L6m2nEmuW-k-21" vertex="1">
          <mxGeometry y="26" width="221" height="26" as="geometry" />
        </mxCell>
        <mxCell id="w-CyJ4oe0L6m2nEmuW-k-23" value="+ Numero: string" style="text;strokeColor=none;fillColor=none;align=left;verticalAlign=top;spacingLeft=4;spacingRight=4;overflow=hidden;rotatable=0;points=[[0,0.5],[1,0.5]];portConstraint=eastwest;whiteSpace=wrap;html=1;" parent="w-CyJ4oe0L6m2nEmuW-k-21" vertex="1">
          <mxGeometry y="52" width="221" height="26" as="geometry" />
        </mxCell>
        <mxCell id="w-CyJ4oe0L6m2nEmuW-k-24" value="+ Clientes[]: Cliente" style="text;strokeColor=none;fillColor=none;align=left;verticalAlign=top;spacingLeft=4;spacingRight=4;overflow=hidden;rotatable=0;points=[[0,0.5],[1,0.5]];portConstraint=eastwest;whiteSpace=wrap;html=1;" parent="w-CyJ4oe0L6m2nEmuW-k-21" vertex="1">
          <mxGeometry y="78" width="221" height="26" as="geometry" />
        </mxCell>
        <mxCell id="w-CyJ4oe0L6m2nEmuW-k-25" value="+ Restrição: bool" style="text;strokeColor=none;fillColor=none;align=left;verticalAlign=top;spacingLeft=4;spacingRight=4;overflow=hidden;rotatable=0;points=[[0,0.5],[1,0.5]];portConstraint=eastwest;whiteSpace=wrap;html=1;" parent="w-CyJ4oe0L6m2nEmuW-k-21" vertex="1">
          <mxGeometry y="104" width="221" height="26" as="geometry" />
        </mxCell>
        <mxCell id="w-CyJ4oe0L6m2nEmuW-k-26" value="+ CartãoCrédito: cartaoCredito" style="text;strokeColor=none;fillColor=none;align=left;verticalAlign=top;spacingLeft=4;spacingRight=4;overflow=hidden;rotatable=0;points=[[0,0.5],[1,0.5]];portConstraint=eastwest;whiteSpace=wrap;html=1;" parent="w-CyJ4oe0L6m2nEmuW-k-21" vertex="1">
          <mxGeometry y="130" width="221" height="26" as="geometry" />
        </mxCell>
        <mxCell id="w-CyJ4oe0L6m2nEmuW-k-27" value="+ ChequeEspecial: double" style="text;strokeColor=none;fillColor=none;align=left;verticalAlign=top;spacingLeft=4;spacingRight=4;overflow=hidden;rotatable=0;points=[[0,0.5],[1,0.5]];portConstraint=eastwest;whiteSpace=wrap;html=1;" parent="w-CyJ4oe0L6m2nEmuW-k-21" vertex="1">
          <mxGeometry y="156" width="221" height="26" as="geometry" />
        </mxCell>
        <mxCell id="w-CyJ4oe0L6m2nEmuW-k-28" value="+ Perfil: Enum" style="text;strokeColor=none;fillColor=none;align=left;verticalAlign=top;spacingLeft=4;spacingRight=4;overflow=hidden;rotatable=0;points=[[0,0.5],[1,0.5]];portConstraint=eastwest;whiteSpace=wrap;html=1;" parent="w-CyJ4oe0L6m2nEmuW-k-21" vertex="1">
          <mxGeometry y="182" width="221" height="26" as="geometry" />
        </mxCell>
        <mxCell id="w-CyJ4oe0L6m2nEmuW-k-29" value="+ DataCriação: date" style="text;strokeColor=none;fillColor=none;align=left;verticalAlign=top;spacingLeft=4;spacingRight=4;overflow=hidden;rotatable=0;points=[[0,0.5],[1,0.5]];portConstraint=eastwest;whiteSpace=wrap;html=1;" parent="w-CyJ4oe0L6m2nEmuW-k-21" vertex="1">
          <mxGeometry y="208" width="221" height="32" as="geometry" />
        </mxCell>
        <mxCell id="w-CyJ4oe0L6m2nEmuW-k-30" value="+ Saldo: double" style="text;strokeColor=none;fillColor=none;align=left;verticalAlign=top;spacingLeft=4;spacingRight=4;overflow=hidden;rotatable=0;points=[[0,0.5],[1,0.5]];portConstraint=eastwest;whiteSpace=wrap;html=1;" parent="w-CyJ4oe0L6m2nEmuW-k-21" vertex="1">
          <mxGeometry y="240" width="221" height="32" as="geometry" />
        </mxCell>
        <mxCell id="w-CyJ4oe0L6m2nEmuW-k-31" value="+ Extrato: transações" style="text;strokeColor=none;fillColor=none;align=left;verticalAlign=top;spacingLeft=4;spacingRight=4;overflow=hidden;rotatable=0;points=[[0,0.5],[1,0.5]];portConstraint=eastwest;whiteSpace=wrap;html=1;" parent="w-CyJ4oe0L6m2nEmuW-k-21" vertex="1">
          <mxGeometry y="272" width="221" height="32" as="geometry" />
        </mxCell>
        <mxCell id="w-CyJ4oe0L6m2nEmuW-k-69" value="+ Ativo: bool" style="text;strokeColor=none;fillColor=none;align=left;verticalAlign=top;spacingLeft=4;spacingRight=4;overflow=hidden;rotatable=0;points=[[0,0.5],[1,0.5]];portConstraint=eastwest;whiteSpace=wrap;html=1;" parent="w-CyJ4oe0L6m2nEmuW-k-21" vertex="1">
          <mxGeometry y="304" width="221" height="26" as="geometry" />
        </mxCell>
        <mxCell id="w-CyJ4oe0L6m2nEmuW-k-32" value="Transações" style="swimlane;fontStyle=0;childLayout=stackLayout;horizontal=1;startSize=26;fillColor=none;horizontalStack=0;resizeParent=1;resizeParentMax=0;resizeLast=0;collapsible=1;marginBottom=0;whiteSpace=wrap;html=1;" parent="1" vertex="1">
          <mxGeometry x="1030" y="527" width="221" height="182" as="geometry" />
        </mxCell>
        <mxCell id="w-CyJ4oe0L6m2nEmuW-k-33" value="+ Id: guid" style="text;strokeColor=none;fillColor=none;align=left;verticalAlign=top;spacingLeft=4;spacingRight=4;overflow=hidden;rotatable=0;points=[[0,0.5],[1,0.5]];portConstraint=eastwest;whiteSpace=wrap;html=1;" parent="w-CyJ4oe0L6m2nEmuW-k-32" vertex="1">
          <mxGeometry y="26" width="221" height="26" as="geometry" />
        </mxCell>
        <mxCell id="w-CyJ4oe0L6m2nEmuW-k-72" value="+ DataPedido: date" style="text;strokeColor=none;fillColor=none;align=left;verticalAlign=top;spacingLeft=4;spacingRight=4;overflow=hidden;rotatable=0;points=[[0,0.5],[1,0.5]];portConstraint=eastwest;whiteSpace=wrap;html=1;" parent="w-CyJ4oe0L6m2nEmuW-k-32" vertex="1">
          <mxGeometry y="52" width="221" height="26" as="geometry" />
        </mxCell>
        <mxCell id="w-CyJ4oe0L6m2nEmuW-k-34" value="+ DataEfetivaação?: date" style="text;strokeColor=none;fillColor=none;align=left;verticalAlign=top;spacingLeft=4;spacingRight=4;overflow=hidden;rotatable=0;points=[[0,0.5],[1,0.5]];portConstraint=eastwest;whiteSpace=wrap;html=1;" parent="w-CyJ4oe0L6m2nEmuW-k-32" vertex="1">
          <mxGeometry y="78" width="221" height="26" as="geometry" />
        </mxCell>
        <mxCell id="w-CyJ4oe0L6m2nEmuW-k-35" value="+ Tipo: Enum" style="text;strokeColor=none;fillColor=none;align=left;verticalAlign=top;spacingLeft=4;spacingRight=4;overflow=hidden;rotatable=0;points=[[0,0.5],[1,0.5]];portConstraint=eastwest;whiteSpace=wrap;html=1;" parent="w-CyJ4oe0L6m2nEmuW-k-32" vertex="1">
          <mxGeometry y="104" width="221" height="26" as="geometry" />
        </mxCell>
        <mxCell id="w-CyJ4oe0L6m2nEmuW-k-36" value="+ Destino?: conta" style="text;strokeColor=none;fillColor=none;align=left;verticalAlign=top;spacingLeft=4;spacingRight=4;overflow=hidden;rotatable=0;points=[[0,0.5],[1,0.5]];portConstraint=eastwest;whiteSpace=wrap;html=1;" parent="w-CyJ4oe0L6m2nEmuW-k-32" vertex="1">
          <mxGeometry y="130" width="221" height="26" as="geometry" />
        </mxCell>
        <mxCell id="w-CyJ4oe0L6m2nEmuW-k-37" value="+ Valor: double" style="text;strokeColor=none;fillColor=none;align=left;verticalAlign=top;spacingLeft=4;spacingRight=4;overflow=hidden;rotatable=0;points=[[0,0.5],[1,0.5]];portConstraint=eastwest;whiteSpace=wrap;html=1;" parent="w-CyJ4oe0L6m2nEmuW-k-32" vertex="1">
          <mxGeometry y="156" width="221" height="26" as="geometry" />
        </mxCell>
        <mxCell id="w-CyJ4oe0L6m2nEmuW-k-43" value="Tipo" style="swimlane;fontStyle=0;childLayout=stackLayout;horizontal=1;startSize=26;fillColor=none;horizontalStack=0;resizeParent=1;resizeParentMax=0;resizeLast=0;collapsible=1;marginBottom=0;whiteSpace=wrap;html=1;" parent="1" vertex="1">
          <mxGeometry x="1320" y="356" width="120" height="156" as="geometry" />
        </mxCell>
        <mxCell id="w-CyJ4oe0L6m2nEmuW-k-44" value="Saque" style="text;strokeColor=none;fillColor=none;align=left;verticalAlign=top;spacingLeft=4;spacingRight=4;overflow=hidden;rotatable=0;points=[[0,0.5],[1,0.5]];portConstraint=eastwest;whiteSpace=wrap;html=1;" parent="w-CyJ4oe0L6m2nEmuW-k-43" vertex="1">
          <mxGeometry y="26" width="120" height="26" as="geometry" />
        </mxCell>
        <mxCell id="w-CyJ4oe0L6m2nEmuW-k-45" value="Deposito" style="text;strokeColor=none;fillColor=none;align=left;verticalAlign=top;spacingLeft=4;spacingRight=4;overflow=hidden;rotatable=0;points=[[0,0.5],[1,0.5]];portConstraint=eastwest;whiteSpace=wrap;html=1;" parent="w-CyJ4oe0L6m2nEmuW-k-43" vertex="1">
          <mxGeometry y="52" width="120" height="26" as="geometry" />
        </mxCell>
        <mxCell id="w-CyJ4oe0L6m2nEmuW-k-46" value="Emprestimo" style="text;strokeColor=none;fillColor=none;align=left;verticalAlign=top;spacingLeft=4;spacingRight=4;overflow=hidden;rotatable=0;points=[[0,0.5],[1,0.5]];portConstraint=eastwest;whiteSpace=wrap;html=1;" parent="w-CyJ4oe0L6m2nEmuW-k-43" vertex="1">
          <mxGeometry y="78" width="120" height="26" as="geometry" />
        </mxCell>
        <mxCell id="w-CyJ4oe0L6m2nEmuW-k-47" value="Transferencia" style="text;strokeColor=none;fillColor=none;align=left;verticalAlign=top;spacingLeft=4;spacingRight=4;overflow=hidden;rotatable=0;points=[[0,0.5],[1,0.5]];portConstraint=eastwest;whiteSpace=wrap;html=1;" parent="w-CyJ4oe0L6m2nEmuW-k-43" vertex="1">
          <mxGeometry y="104" width="120" height="26" as="geometry" />
        </mxCell>
        <mxCell id="w-CyJ4oe0L6m2nEmuW-k-48" value="Pagamento" style="text;strokeColor=none;fillColor=none;align=left;verticalAlign=top;spacingLeft=4;spacingRight=4;overflow=hidden;rotatable=0;points=[[0,0.5],[1,0.5]];portConstraint=eastwest;whiteSpace=wrap;html=1;" parent="w-CyJ4oe0L6m2nEmuW-k-43" vertex="1">
          <mxGeometry y="130" width="120" height="26" as="geometry" />
        </mxCell>
        <mxCell id="w-CyJ4oe0L6m2nEmuW-k-49" value="Perfil" style="swimlane;fontStyle=0;childLayout=stackLayout;horizontal=1;startSize=26;fillColor=none;horizontalStack=0;resizeParent=1;resizeParentMax=0;resizeLast=0;collapsible=1;marginBottom=0;whiteSpace=wrap;html=1;" parent="1" vertex="1">
          <mxGeometry x="718" y="750" width="125" height="104" as="geometry" />
        </mxCell>
        <mxCell id="w-CyJ4oe0L6m2nEmuW-k-50" value="Universitário" style="text;strokeColor=none;fillColor=none;align=left;verticalAlign=top;spacingLeft=4;spacingRight=4;overflow=hidden;rotatable=0;points=[[0,0.5],[1,0.5]];portConstraint=eastwest;whiteSpace=wrap;html=1;" parent="w-CyJ4oe0L6m2nEmuW-k-49" vertex="1">
          <mxGeometry y="26" width="125" height="26" as="geometry" />
        </mxCell>
        <mxCell id="w-CyJ4oe0L6m2nEmuW-k-51" value="Normal" style="text;strokeColor=none;fillColor=none;align=left;verticalAlign=top;spacingLeft=4;spacingRight=4;overflow=hidden;rotatable=0;points=[[0,0.5],[1,0.5]];portConstraint=eastwest;whiteSpace=wrap;html=1;" parent="w-CyJ4oe0L6m2nEmuW-k-49" vertex="1">
          <mxGeometry y="52" width="125" height="26" as="geometry" />
        </mxCell>
        <mxCell id="w-CyJ4oe0L6m2nEmuW-k-52" value="Cliente Vip" style="text;strokeColor=none;fillColor=none;align=left;verticalAlign=top;spacingLeft=4;spacingRight=4;overflow=hidden;rotatable=0;points=[[0,0.5],[1,0.5]];portConstraint=eastwest;whiteSpace=wrap;html=1;" parent="w-CyJ4oe0L6m2nEmuW-k-49" vertex="1">
          <mxGeometry y="78" width="125" height="26" as="geometry" />
        </mxCell>
        <mxCell id="w-CyJ4oe0L6m2nEmuW-k-55" value="CartãoCredito" style="swimlane;fontStyle=0;childLayout=stackLayout;horizontal=1;startSize=26;fillColor=none;horizontalStack=0;resizeParent=1;resizeParentMax=0;resizeLast=0;collapsible=1;marginBottom=0;whiteSpace=wrap;html=1;" parent="1" vertex="1">
          <mxGeometry x="1089" y="40" width="221" height="208" as="geometry" />
        </mxCell>
        <mxCell id="w-CyJ4oe0L6m2nEmuW-k-56" value="+ Numero: string" style="text;strokeColor=none;fillColor=none;align=left;verticalAlign=top;spacingLeft=4;spacingRight=4;overflow=hidden;rotatable=0;points=[[0,0.5],[1,0.5]];portConstraint=eastwest;whiteSpace=wrap;html=1;" parent="w-CyJ4oe0L6m2nEmuW-k-55" vertex="1">
          <mxGeometry y="26" width="221" height="26" as="geometry" />
        </mxCell>
        <mxCell id="w-CyJ4oe0L6m2nEmuW-k-57" value="+ DataValidade: dateOnly" style="text;strokeColor=none;fillColor=none;align=left;verticalAlign=top;spacingLeft=4;spacingRight=4;overflow=hidden;rotatable=0;points=[[0,0.5],[1,0.5]];portConstraint=eastwest;whiteSpace=wrap;html=1;" parent="w-CyJ4oe0L6m2nEmuW-k-55" vertex="1">
          <mxGeometry y="52" width="221" height="26" as="geometry" />
        </mxCell>
        <mxCell id="w-CyJ4oe0L6m2nEmuW-k-58" value="+ Limite: double" style="text;strokeColor=none;fillColor=none;align=left;verticalAlign=top;spacingLeft=4;spacingRight=4;overflow=hidden;rotatable=0;points=[[0,0.5],[1,0.5]];portConstraint=eastwest;whiteSpace=wrap;html=1;" parent="w-CyJ4oe0L6m2nEmuW-k-55" vertex="1">
          <mxGeometry y="78" width="221" height="26" as="geometry" />
        </mxCell>
        <mxCell id="w-CyJ4oe0L6m2nEmuW-k-59" value="+ CVV: string" style="text;strokeColor=none;fillColor=none;align=left;verticalAlign=top;spacingLeft=4;spacingRight=4;overflow=hidden;rotatable=0;points=[[0,0.5],[1,0.5]];portConstraint=eastwest;whiteSpace=wrap;html=1;" parent="w-CyJ4oe0L6m2nEmuW-k-55" vertex="1">
          <mxGeometry y="104" width="221" height="26" as="geometry" />
        </mxCell>
        <mxCell id="w-CyJ4oe0L6m2nEmuW-k-60" value="+ Titular: string" style="text;strokeColor=none;fillColor=none;align=left;verticalAlign=top;spacingLeft=4;spacingRight=4;overflow=hidden;rotatable=0;points=[[0,0.5],[1,0.5]];portConstraint=eastwest;whiteSpace=wrap;html=1;" parent="w-CyJ4oe0L6m2nEmuW-k-55" vertex="1">
          <mxGeometry y="130" width="221" height="26" as="geometry" />
        </mxCell>
        <mxCell id="w-CyJ4oe0L6m2nEmuW-k-61" value="+ Bandeira: string" style="text;strokeColor=none;fillColor=none;align=left;verticalAlign=top;spacingLeft=4;spacingRight=4;overflow=hidden;rotatable=0;points=[[0,0.5],[1,0.5]];portConstraint=eastwest;whiteSpace=wrap;html=1;" parent="w-CyJ4oe0L6m2nEmuW-k-55" vertex="1">
          <mxGeometry y="156" width="221" height="26" as="geometry" />
        </mxCell>
        <mxCell id="w-CyJ4oe0L6m2nEmuW-k-70" value="+ Ativo: bool" style="text;strokeColor=none;fillColor=none;align=left;verticalAlign=top;spacingLeft=4;spacingRight=4;overflow=hidden;rotatable=0;points=[[0,0.5],[1,0.5]];portConstraint=eastwest;whiteSpace=wrap;html=1;" parent="w-CyJ4oe0L6m2nEmuW-k-55" vertex="1">
          <mxGeometry y="182" width="221" height="26" as="geometry" />
        </mxCell>
        <mxCell id="w-CyJ4oe0L6m2nEmuW-k-62" value="Agencia" style="swimlane;fontStyle=0;childLayout=stackLayout;horizontal=1;startSize=26;fillColor=none;horizontalStack=0;resizeParent=1;resizeParentMax=0;resizeLast=0;collapsible=1;marginBottom=0;whiteSpace=wrap;html=1;" parent="1" vertex="1">
          <mxGeometry x="340" y="550" width="221" height="182" as="geometry" />
        </mxCell>
        <mxCell id="w-CyJ4oe0L6m2nEmuW-k-65" value="+ CNPJ: string" style="text;strokeColor=none;fillColor=none;align=left;verticalAlign=top;spacingLeft=4;spacingRight=4;overflow=hidden;rotatable=0;points=[[0,0.5],[1,0.5]];portConstraint=eastwest;whiteSpace=wrap;html=1;" parent="w-CyJ4oe0L6m2nEmuW-k-62" vertex="1">
          <mxGeometry y="26" width="221" height="26" as="geometry" />
        </mxCell>
        <mxCell id="w-CyJ4oe0L6m2nEmuW-k-63" value="+ Numero: string" style="text;strokeColor=none;fillColor=none;align=left;verticalAlign=top;spacingLeft=4;spacingRight=4;overflow=hidden;rotatable=0;points=[[0,0.5],[1,0.5]];portConstraint=eastwest;whiteSpace=wrap;html=1;" parent="w-CyJ4oe0L6m2nEmuW-k-62" vertex="1">
          <mxGeometry y="52" width="221" height="26" as="geometry" />
        </mxCell>
        <mxCell id="w-CyJ4oe0L6m2nEmuW-k-64" value="+ Endereco: enderecoCompleto" style="text;strokeColor=none;fillColor=none;align=left;verticalAlign=top;spacingLeft=4;spacingRight=4;overflow=hidden;rotatable=0;points=[[0,0.5],[1,0.5]];portConstraint=eastwest;whiteSpace=wrap;html=1;" parent="w-CyJ4oe0L6m2nEmuW-k-62" vertex="1">
          <mxGeometry y="78" width="221" height="26" as="geometry" />
        </mxCell>
        <mxCell id="w-CyJ4oe0L6m2nEmuW-k-66" value="+ Funcionarios[]: funcionario" style="text;strokeColor=none;fillColor=none;align=left;verticalAlign=top;spacingLeft=4;spacingRight=4;overflow=hidden;rotatable=0;points=[[0,0.5],[1,0.5]];portConstraint=eastwest;whiteSpace=wrap;html=1;" parent="w-CyJ4oe0L6m2nEmuW-k-62" vertex="1">
          <mxGeometry y="104" width="221" height="26" as="geometry" />
        </mxCell>
        <mxCell id="w-CyJ4oe0L6m2nEmuW-k-71" value="+ Ativo: bool" style="text;strokeColor=none;fillColor=none;align=left;verticalAlign=top;spacingLeft=4;spacingRight=4;overflow=hidden;rotatable=0;points=[[0,0.5],[1,0.5]];portConstraint=eastwest;whiteSpace=wrap;html=1;" parent="w-CyJ4oe0L6m2nEmuW-k-62" vertex="1">
          <mxGeometry y="130" width="221" height="26" as="geometry" />
        </mxCell>
        <mxCell id="w-CyJ4oe0L6m2nEmuW-k-67" value="+ Restrição: bool" style="text;strokeColor=none;fillColor=none;align=left;verticalAlign=top;spacingLeft=4;spacingRight=4;overflow=hidden;rotatable=0;points=[[0,0.5],[1,0.5]];portConstraint=eastwest;whiteSpace=wrap;html=1;" parent="w-CyJ4oe0L6m2nEmuW-k-62" vertex="1">
          <mxGeometry y="156" width="221" height="26" as="geometry" />
        </mxCell>
        <mxCell id="w-CyJ4oe0L6m2nEmuW-k-75" style="edgeStyle=orthogonalEdgeStyle;rounded=0;orthogonalLoop=1;jettySize=auto;html=1;entryX=0;entryY=0.168;entryDx=0;entryDy=0;entryPerimeter=0;" parent="1" source="OWS8ay4OK2PdKrpL_n5y-1" target="OWS8ay4OK2PdKrpL_n5y-11" edge="1">
          <mxGeometry relative="1" as="geometry" />
        </mxCell>
        <mxCell id="w-CyJ4oe0L6m2nEmuW-k-76" style="edgeStyle=orthogonalEdgeStyle;rounded=0;orthogonalLoop=1;jettySize=auto;html=1;entryX=1.004;entryY=0.101;entryDx=0;entryDy=0;entryPerimeter=0;" parent="1" source="OWS8ay4OK2PdKrpL_n5y-6" target="w-CyJ4oe0L6m2nEmuW-k-14" edge="1">
          <mxGeometry relative="1" as="geometry" />
        </mxCell>
        <mxCell id="w-CyJ4oe0L6m2nEmuW-k-79" style="edgeStyle=orthogonalEdgeStyle;rounded=0;orthogonalLoop=1;jettySize=auto;html=1;entryX=0.5;entryY=0;entryDx=0;entryDy=0;" parent="1" source="w-CyJ4oe0L6m2nEmuW-k-22" target="w-CyJ4oe0L6m2nEmuW-k-62" edge="1">
          <mxGeometry relative="1" as="geometry" />
        </mxCell>
        <mxCell id="w-CyJ4oe0L6m2nEmuW-k-80" style="edgeStyle=orthogonalEdgeStyle;rounded=0;orthogonalLoop=1;jettySize=auto;html=1;entryX=1;entryY=0.25;entryDx=0;entryDy=0;exitX=1;exitY=0.5;exitDx=0;exitDy=0;" parent="1" source="w-CyJ4oe0L6m2nEmuW-k-24" target="w-CyJ4oe0L6m2nEmuW-k-1" edge="1">
          <mxGeometry relative="1" as="geometry">
            <Array as="points">
              <mxPoint x="940" y="421" />
              <mxPoint x="940" y="220" />
            </Array>
          </mxGeometry>
        </mxCell>
        <mxCell id="w-CyJ4oe0L6m2nEmuW-k-81" style="edgeStyle=orthogonalEdgeStyle;rounded=0;orthogonalLoop=1;jettySize=auto;html=1;entryX=-0.004;entryY=0.067;entryDx=0;entryDy=0;entryPerimeter=0;" parent="1" source="w-CyJ4oe0L6m2nEmuW-k-26" target="w-CyJ4oe0L6m2nEmuW-k-55" edge="1">
          <mxGeometry relative="1" as="geometry" />
        </mxCell>
        <mxCell id="w-CyJ4oe0L6m2nEmuW-k-82" style="edgeStyle=orthogonalEdgeStyle;rounded=0;orthogonalLoop=1;jettySize=auto;html=1;entryX=0.009;entryY=0.136;entryDx=0;entryDy=0;entryPerimeter=0;" parent="1" source="w-CyJ4oe0L6m2nEmuW-k-28" target="w-CyJ4oe0L6m2nEmuW-k-49" edge="1">
          <mxGeometry relative="1" as="geometry">
            <Array as="points">
              <mxPoint x="650" y="525" />
              <mxPoint x="650" y="764" />
            </Array>
          </mxGeometry>
        </mxCell>
        <mxCell id="w-CyJ4oe0L6m2nEmuW-k-83" style="edgeStyle=orthogonalEdgeStyle;rounded=0;orthogonalLoop=1;jettySize=auto;html=1;" parent="1" source="w-CyJ4oe0L6m2nEmuW-k-31" target="w-CyJ4oe0L6m2nEmuW-k-32" edge="1">
          <mxGeometry relative="1" as="geometry" />
        </mxCell>
        <mxCell id="w-CyJ4oe0L6m2nEmuW-k-84" style="edgeStyle=orthogonalEdgeStyle;rounded=0;orthogonalLoop=1;jettySize=auto;html=1;entryX=0;entryY=0.072;entryDx=0;entryDy=0;entryPerimeter=0;" parent="1" source="w-CyJ4oe0L6m2nEmuW-k-35" target="w-CyJ4oe0L6m2nEmuW-k-43" edge="1">
          <mxGeometry relative="1" as="geometry" />
        </mxCell>
        <mxCell id="w-CyJ4oe0L6m2nEmuW-k-85" style="edgeStyle=orthogonalEdgeStyle;rounded=0;orthogonalLoop=1;jettySize=auto;html=1;entryX=0.008;entryY=0.115;entryDx=0;entryDy=0;entryPerimeter=0;" parent="1" source="w-CyJ4oe0L6m2nEmuW-k-64" target="w-CyJ4oe0L6m2nEmuW-k-14" edge="1">
          <mxGeometry relative="1" as="geometry">
            <Array as="points">
              <mxPoint x="40" y="641" />
              <mxPoint x="40" y="275" />
            </Array>
          </mxGeometry>
        </mxCell>
      </root>
    </mxGraphModel>
  </diagram>
</mxfile>
